<mxfile host="app.diagrams.net" modified="2022-10-14T10:00:39.040Z" agent="5.0 (Windows NT 10.0; Win64; x64) AppleWebKit/537.36 (KHTML, like Gecko) Chrome/106.0.0.0 Safari/537.36" etag="Q-eIcR5ddXSVSweecTxh" version="20.4.0" type="github">
  <diagram id="M5F1hp7uvuzeiIw6k6TS" name="第 1 页">
    <mxGraphModel dx="1422" dy="716" grid="1" gridSize="10" guides="1" tooltips="1" connect="1" arrows="1" fold="1" page="1" pageScale="1" pageWidth="827" pageHeight="1169" math="0" shadow="0">
      <root>
        <mxCell id="0" />
        <mxCell id="1" parent="0" />
        <mxCell id="Wuoafag_e7uJaNjNSKO9-15" value="" style="endArrow=none;dashed=1;html=1;rounded=0;" edge="1" parent="1">
          <mxGeometry width="50" height="50" relative="1" as="geometry">
            <mxPoint x="309" y="560" as="sourcePoint" />
            <mxPoint x="309" y="120" as="targetPoint" />
          </mxGeometry>
        </mxCell>
        <mxCell id="Wuoafag_e7uJaNjNSKO9-16" value="" style="endArrow=none;dashed=1;html=1;rounded=0;" edge="1" parent="1">
          <mxGeometry width="50" height="50" relative="1" as="geometry">
            <mxPoint x="549" y="550" as="sourcePoint" />
            <mxPoint x="549" y="110" as="targetPoint" />
          </mxGeometry>
        </mxCell>
        <mxCell id="Wuoafag_e7uJaNjNSKO9-17" value="金融城域网" style="text;html=1;strokeColor=none;fillColor=none;align=center;verticalAlign=middle;whiteSpace=wrap;rounded=0;" vertex="1" parent="1">
          <mxGeometry x="109" y="120" width="90" height="30" as="geometry" />
        </mxCell>
        <mxCell id="Wuoafag_e7uJaNjNSKO9-18" value="DMZ区" style="text;html=1;strokeColor=none;fillColor=none;align=center;verticalAlign=middle;whiteSpace=wrap;rounded=0;" vertex="1" parent="1">
          <mxGeometry x="389" y="120" width="90" height="30" as="geometry" />
        </mxCell>
        <mxCell id="Wuoafag_e7uJaNjNSKO9-19" value="人行业务网" style="text;html=1;strokeColor=none;fillColor=none;align=center;verticalAlign=middle;whiteSpace=wrap;rounded=0;" vertex="1" parent="1">
          <mxGeometry x="639" y="120" width="90" height="30" as="geometry" />
        </mxCell>
        <mxCell id="Wuoafag_e7uJaNjNSKO9-21" value="机构用户" style="shape=umlActor;verticalLabelPosition=bottom;verticalAlign=top;html=1;outlineConnect=0;" vertex="1" parent="1">
          <mxGeometry x="29" y="320" width="30" height="60" as="geometry" />
        </mxCell>
        <mxCell id="Wuoafag_e7uJaNjNSKO9-23" value="机构端应用服务器" style="swimlane;" vertex="1" parent="1">
          <mxGeometry x="348" y="260" width="175" height="200" as="geometry" />
        </mxCell>
        <mxCell id="Wuoafag_e7uJaNjNSKO9-24" value="应用程序网关" style="whiteSpace=wrap;html=1;" vertex="1" parent="Wuoafag_e7uJaNjNSKO9-23">
          <mxGeometry x="30" y="50" width="120" height="50" as="geometry" />
        </mxCell>
        <mxCell id="Wuoafag_e7uJaNjNSKO9-42" value="文件服务系统" style="whiteSpace=wrap;html=1;" vertex="1" parent="Wuoafag_e7uJaNjNSKO9-23">
          <mxGeometry x="30" y="120" width="120" height="50" as="geometry" />
        </mxCell>
        <mxCell id="Wuoafag_e7uJaNjNSKO9-31" value="机构前置应用服务器" style="swimlane;" vertex="1" parent="1">
          <mxGeometry x="119" y="260" width="170" height="200" as="geometry" />
        </mxCell>
        <mxCell id="Wuoafag_e7uJaNjNSKO9-32" value="北极星数据查询平台" style="whiteSpace=wrap;html=1;" vertex="1" parent="Wuoafag_e7uJaNjNSKO9-31">
          <mxGeometry x="25" y="60" width="120" height="100" as="geometry" />
        </mxCell>
        <mxCell id="Wuoafag_e7uJaNjNSKO9-33" value="" style="endArrow=classic;html=1;rounded=0;" edge="1" parent="1">
          <mxGeometry width="50" height="50" relative="1" as="geometry">
            <mxPoint x="69" y="360" as="sourcePoint" />
            <mxPoint x="139" y="360" as="targetPoint" />
          </mxGeometry>
        </mxCell>
        <mxCell id="Wuoafag_e7uJaNjNSKO9-34" value="" style="endArrow=classic;html=1;rounded=0;exitX=1;exitY=0.5;exitDx=0;exitDy=0;" edge="1" parent="1" source="Wuoafag_e7uJaNjNSKO9-32">
          <mxGeometry width="50" height="50" relative="1" as="geometry">
            <mxPoint x="279" y="340" as="sourcePoint" />
            <mxPoint x="349" y="360" as="targetPoint" />
          </mxGeometry>
        </mxCell>
        <mxCell id="Wuoafag_e7uJaNjNSKO9-47" style="edgeStyle=orthogonalEdgeStyle;rounded=0;orthogonalLoop=1;jettySize=auto;html=1;exitX=1;exitY=0.5;exitDx=0;exitDy=0;entryX=1;entryY=0.75;entryDx=0;entryDy=0;" edge="1" parent="1" source="Wuoafag_e7uJaNjNSKO9-37" target="Wuoafag_e7uJaNjNSKO9-38">
          <mxGeometry relative="1" as="geometry" />
        </mxCell>
        <mxCell id="Wuoafag_e7uJaNjNSKO9-50" style="edgeStyle=orthogonalEdgeStyle;rounded=0;orthogonalLoop=1;jettySize=auto;html=1;exitX=1;exitY=0.5;exitDx=0;exitDy=0;entryX=1;entryY=0.5;entryDx=0;entryDy=0;" edge="1" parent="1" source="Wuoafag_e7uJaNjNSKO9-37" target="Wuoafag_e7uJaNjNSKO9-39">
          <mxGeometry relative="1" as="geometry" />
        </mxCell>
        <mxCell id="Wuoafag_e7uJaNjNSKO9-37" value="人行端应用服务器" style="swimlane;" vertex="1" parent="1">
          <mxGeometry x="584" y="160" width="200" height="120" as="geometry" />
        </mxCell>
        <mxCell id="Wuoafag_e7uJaNjNSKO9-40" value="北极星平台后台&lt;br&gt;接口服务" style="whiteSpace=wrap;html=1;" vertex="1" parent="Wuoafag_e7uJaNjNSKO9-37">
          <mxGeometry x="25" y="50" width="150" height="40" as="geometry" />
        </mxCell>
        <mxCell id="Wuoafag_e7uJaNjNSKO9-46" value="" style="endArrow=classic;html=1;rounded=0;" edge="1" parent="Wuoafag_e7uJaNjNSKO9-37">
          <mxGeometry width="50" height="50" relative="1" as="geometry">
            <mxPoint x="-55" y="190" as="sourcePoint" />
            <mxPoint x="-5" y="80" as="targetPoint" />
          </mxGeometry>
        </mxCell>
        <mxCell id="Wuoafag_e7uJaNjNSKO9-38" value="人行端数据库服务器" style="swimlane;" vertex="1" parent="1">
          <mxGeometry x="584" y="290" width="200" height="120" as="geometry" />
        </mxCell>
        <mxCell id="Wuoafag_e7uJaNjNSKO9-41" value="关系型数据库&lt;br&gt;Mysql" style="whiteSpace=wrap;html=1;" vertex="1" parent="Wuoafag_e7uJaNjNSKO9-38">
          <mxGeometry x="45" y="50" width="120" height="50" as="geometry" />
        </mxCell>
        <mxCell id="Wuoafag_e7uJaNjNSKO9-39" value="星环大数据平台" style="swimlane;" vertex="1" parent="1">
          <mxGeometry x="584" y="420" width="200" height="120" as="geometry" />
        </mxCell>
        <mxCell id="Wuoafag_e7uJaNjNSKO9-43" value="Transwarp Inceptor" style="whiteSpace=wrap;html=1;" vertex="1" parent="Wuoafag_e7uJaNjNSKO9-39">
          <mxGeometry x="25" y="40" width="155" height="30" as="geometry" />
        </mxCell>
        <mxCell id="Wuoafag_e7uJaNjNSKO9-44" value="HDFS" style="whiteSpace=wrap;html=1;" vertex="1" parent="Wuoafag_e7uJaNjNSKO9-39">
          <mxGeometry x="25" y="80" width="55" height="30" as="geometry" />
        </mxCell>
        <mxCell id="Wuoafag_e7uJaNjNSKO9-45" value="Mysql/Teradata" style="whiteSpace=wrap;html=1;" vertex="1" parent="Wuoafag_e7uJaNjNSKO9-39">
          <mxGeometry x="90" y="80" width="90" height="30" as="geometry" />
        </mxCell>
      </root>
    </mxGraphModel>
  </diagram>
</mxfile>
